<svg xmlns="http://www.w3.org/2000/svg" width="110.697" height="15" viewBox="0 0 110.697 15">
  <path id="Union_27" data-name="Union 27" d="M-10711.076,1924.521a7.437,7.437,0,0,1,7.6-7.521,7.364,7.364,0,0,1,7.561,7.481,7.429,7.429,0,0,1-7.6,7.519A7.363,7.363,0,0,1-10711.076,1924.521Zm7.6,5.137a4.906,4.906,0,0,0,4.895-5.139,4.979,4.979,0,0,0-4.937-5.177,4.91,4.91,0,0,0-4.889,5.139A4.971,4.971,0,0,0-10703.477,1929.658Zm-54.68-.015,1.533-1.826a6.67,6.67,0,0,0,4.58,1.884c1.57,0,2.564-.722,2.564-1.844,0-1.059-.578-1.617-3.271-2.241-3.088-.742-4.828-1.655-4.828-4.349,0-2.528,2.072-4.226,4.947-4.226a8.064,8.064,0,0,1,5.27,1.824l-1.369,1.927a6.573,6.573,0,0,0-3.937-1.494c-1.488,0-2.359.77-2.359,1.741,0,1.145.66,1.643,3.441,2.3,3.064.75,4.656,1.844,4.656,4.266,0,2.742-2.137,4.357-5.176,4.357A8.933,8.933,0,0,1-10758.156,1929.643Zm40.264,2.11v-14.5h2.545v14.5Zm-17.389,0v-14.5h5.406c4.557,0,7.709,3.127,7.709,7.232s-3.152,7.27-7.709,7.27Zm2.549-2.317h2.857a4.734,4.734,0,0,0,5.035-4.915,4.761,4.761,0,0,0-5.035-4.948h-2.857Zm-10.01,2.317v-14.5h2.549v14.5Zm-29.361,0v-14.5h10.76v2.279h-8.211v3.771h7.273v2.279h-7.273v3.9h8.3v2.274Zm-6.717,0-3.559-5.056h-3.2v5.056h-2.547v-14.5h6.465c3.338,0,5.391,1.761,5.391,4.6a4.338,4.338,0,0,1-3.459,4.407l3.912,5.491Zm-6.754-7.31h3.729c1.826,0,2.986-.956,2.986-2.448,0-1.6-1.117-2.422-3-2.422h-3.711Zm-17.426,7.307v-14.5h5.717c3.381,0,5.518,1.907,5.518,4.868,0,3.273-2.615,4.976-5.807,4.976h-2.879v4.656Zm2.549-6.955h2.965c1.924,0,3.129-1.057,3.129-2.611,0-1.723-1.225-2.611-3.129-2.611h-2.965Zm104.926-5.914a1.583,1.583,0,0,1,1.627-1.57,1.571,1.571,0,0,1,1.6,1.57,1.58,1.58,0,0,1-1.605,1.577A1.589,1.589,0,0,1-10695.525,1918.881Zm.4,0a1.219,1.219,0,0,0,1.223,1.25,1.2,1.2,0,0,0,1.2-1.243,1.218,1.218,0,0,0-1.215-1.26A1.221,1.221,0,0,0-10695.121,1918.881Zm1.582.81a1.174,1.174,0,0,1-.123-.382c-.029-.161-.123-.239-.324-.239h-.174v.621h-.361v-1.567a4.471,4.471,0,0,1,.6-.048.818.818,0,0,1,.535.126.39.39,0,0,1,.164.332.406.406,0,0,1-.324.372v.02c.152.048.229.174.275.382a1.528,1.528,0,0,0,.113.382Zm-.437-.878c.2,0,.363-.065.363-.226,0-.146-.1-.239-.334-.239a.788.788,0,0,0-.2.02v.445Zm-.168,0h0Zm-.016.878h0Z" transform="translate(10803 -1917)" fill="#fff"/>
</svg>
