<svg xmlns="http://www.w3.org/2000/svg" width="40" height="40" viewBox="0 0 40 40">
  <g id="Group_749" data-name="Group 749" transform="translate(-149 -57)">
    <rect id="Rectangle_585" data-name="Rectangle 585" width="40" height="40" rx="5" transform="translate(149 57)" fill="#aec0d1"/>
    <path id="Path_747" data-name="Path 747" d="M9,14a5,5,0,1,0-3.536-1.465A4.985,4.985,0,0,0,9,14Zm0,7c3.518,0,6-1,6-2,0-2-2.354-4-6-4-3.75,0-6,2-6,4C3,20,5.25,21,9,21Zm12-9H19V10a1,1,0,0,0-2,0v2H15a1,1,0,0,0,0,2h2v2a1,1,0,0,0,2,0V14h2a1,1,0,0,0,0-2Z" transform="translate(157 65)" fill="#e2eaf3"/>
  </g>
</svg>
